<?xml version="1.0" encoding="utf-8" standalone="no"?>
<!DOCTYPE svg PUBLIC "-//W3C//DTD SVG 1.1//EN"
  "http://www.w3.org/Graphics/SVG/1.1/DTD/svg11.dtd">
<!-- Created with matplotlib (https://matplotlib.org/) -->
<svg height="288pt" version="1.1" viewBox="0 0 432 288" width="432pt" xmlns="http://www.w3.org/2000/svg" xmlns:xlink="http://www.w3.org/1999/xlink">
 <metadata>
  <rdf:RDF xmlns:cc="http://creativecommons.org/ns#" xmlns:dc="http://purl.org/dc/elements/1.1/" xmlns:rdf="http://www.w3.org/1999/02/22-rdf-syntax-ns#">
   <cc:Work>
    <dc:type rdf:resource="http://purl.org/dc/dcmitype/StillImage"/>
    <dc:date>2021-10-28T10:30:01.545933</dc:date>
    <dc:format>image/svg+xml</dc:format>
    <dc:creator>
     <cc:Agent>
      <dc:title>Matplotlib v3.3.4, https://matplotlib.org/</dc:title>
     </cc:Agent>
    </dc:creator>
   </cc:Work>
  </rdf:RDF>
 </metadata>
 <defs>
  <style type="text/css">*{stroke-linecap:butt;stroke-linejoin:round;}</style>
 </defs>
 <g id="figure_1">
  <g id="patch_1">
   <path d="M 0 288 
L 432 288 
L 432 0 
L 0 0 
z
" style="fill:none;"/>
  </g>
  <g id="axes_1">
   <g id="patch_2">
    <path d="M 54 252 
L 388.8 252 
L 388.8 34.56 
L 54 34.56 
z
" style="fill:#ffffff;"/>
   </g>
   <g id="matplotlib.axis_1">
    <g id="xtick_1">
     <g id="line2d_1">
      <defs>
       <path d="M 0 0 
L 0 3.5 
" id="m940a8dfe75" style="stroke:#000000;stroke-width:0.8;"/>
      </defs>
      <g>
       <use style="stroke:#000000;stroke-width:0.8;" x="69.218182" xlink:href="#m940a8dfe75" y="252"/>
      </g>
     </g>
     <g id="text_1">
      <!-- 0.0 -->
      <g transform="translate(61.266619 266.598437)scale(0.1 -0.1)">
       <defs>
        <path d="M 31.78125 66.40625 
Q 24.171875 66.40625 20.328125 58.90625 
Q 16.5 51.421875 16.5 36.375 
Q 16.5 21.390625 20.328125 13.890625 
Q 24.171875 6.390625 31.78125 6.390625 
Q 39.453125 6.390625 43.28125 13.890625 
Q 47.125 21.390625 47.125 36.375 
Q 47.125 51.421875 43.28125 58.90625 
Q 39.453125 66.40625 31.78125 66.40625 
z
M 31.78125 74.21875 
Q 44.046875 74.21875 50.515625 64.515625 
Q 56.984375 54.828125 56.984375 36.375 
Q 56.984375 17.96875 50.515625 8.265625 
Q 44.046875 -1.421875 31.78125 -1.421875 
Q 19.53125 -1.421875 13.0625 8.265625 
Q 6.59375 17.96875 6.59375 36.375 
Q 6.59375 54.828125 13.0625 64.515625 
Q 19.53125 74.21875 31.78125 74.21875 
z
" id="DejaVuSans-48"/>
        <path d="M 10.6875 12.40625 
L 21 12.40625 
L 21 0 
L 10.6875 0 
z
" id="DejaVuSans-46"/>
       </defs>
       <use xlink:href="#DejaVuSans-48"/>
       <use x="63.623047" xlink:href="#DejaVuSans-46"/>
       <use x="95.410156" xlink:href="#DejaVuSans-48"/>
      </g>
     </g>
    </g>
    <g id="xtick_2">
     <g id="line2d_2">
      <g>
       <use style="stroke:#000000;stroke-width:0.8;" x="130.090909" xlink:href="#m940a8dfe75" y="252"/>
      </g>
     </g>
     <g id="text_2">
      <!-- 0.2 -->
      <g transform="translate(122.139347 266.598437)scale(0.1 -0.1)">
       <defs>
        <path d="M 19.1875 8.296875 
L 53.609375 8.296875 
L 53.609375 0 
L 7.328125 0 
L 7.328125 8.296875 
Q 12.9375 14.109375 22.625 23.890625 
Q 32.328125 33.6875 34.8125 36.53125 
Q 39.546875 41.84375 41.421875 45.53125 
Q 43.3125 49.21875 43.3125 52.78125 
Q 43.3125 58.59375 39.234375 62.25 
Q 35.15625 65.921875 28.609375 65.921875 
Q 23.96875 65.921875 18.8125 64.3125 
Q 13.671875 62.703125 7.8125 59.421875 
L 7.8125 69.390625 
Q 13.765625 71.78125 18.9375 73 
Q 24.125 74.21875 28.421875 74.21875 
Q 39.75 74.21875 46.484375 68.546875 
Q 53.21875 62.890625 53.21875 53.421875 
Q 53.21875 48.921875 51.53125 44.890625 
Q 49.859375 40.875 45.40625 35.40625 
Q 44.1875 33.984375 37.640625 27.21875 
Q 31.109375 20.453125 19.1875 8.296875 
z
" id="DejaVuSans-50"/>
       </defs>
       <use xlink:href="#DejaVuSans-48"/>
       <use x="63.623047" xlink:href="#DejaVuSans-46"/>
       <use x="95.410156" xlink:href="#DejaVuSans-50"/>
      </g>
     </g>
    </g>
    <g id="xtick_3">
     <g id="line2d_3">
      <g>
       <use style="stroke:#000000;stroke-width:0.8;" x="190.963636" xlink:href="#m940a8dfe75" y="252"/>
      </g>
     </g>
     <g id="text_3">
      <!-- 0.4 -->
      <g transform="translate(183.012074 266.598437)scale(0.1 -0.1)">
       <defs>
        <path d="M 37.796875 64.3125 
L 12.890625 25.390625 
L 37.796875 25.390625 
z
M 35.203125 72.90625 
L 47.609375 72.90625 
L 47.609375 25.390625 
L 58.015625 25.390625 
L 58.015625 17.1875 
L 47.609375 17.1875 
L 47.609375 0 
L 37.796875 0 
L 37.796875 17.1875 
L 4.890625 17.1875 
L 4.890625 26.703125 
z
" id="DejaVuSans-52"/>
       </defs>
       <use xlink:href="#DejaVuSans-48"/>
       <use x="63.623047" xlink:href="#DejaVuSans-46"/>
       <use x="95.410156" xlink:href="#DejaVuSans-52"/>
      </g>
     </g>
    </g>
    <g id="xtick_4">
     <g id="line2d_4">
      <g>
       <use style="stroke:#000000;stroke-width:0.8;" x="251.836364" xlink:href="#m940a8dfe75" y="252"/>
      </g>
     </g>
     <g id="text_4">
      <!-- 0.6 -->
      <g transform="translate(243.884801 266.598437)scale(0.1 -0.1)">
       <defs>
        <path d="M 33.015625 40.375 
Q 26.375 40.375 22.484375 35.828125 
Q 18.609375 31.296875 18.609375 23.390625 
Q 18.609375 15.53125 22.484375 10.953125 
Q 26.375 6.390625 33.015625 6.390625 
Q 39.65625 6.390625 43.53125 10.953125 
Q 47.40625 15.53125 47.40625 23.390625 
Q 47.40625 31.296875 43.53125 35.828125 
Q 39.65625 40.375 33.015625 40.375 
z
M 52.59375 71.296875 
L 52.59375 62.3125 
Q 48.875 64.0625 45.09375 64.984375 
Q 41.3125 65.921875 37.59375 65.921875 
Q 27.828125 65.921875 22.671875 59.328125 
Q 17.53125 52.734375 16.796875 39.40625 
Q 19.671875 43.65625 24.015625 45.921875 
Q 28.375 48.1875 33.59375 48.1875 
Q 44.578125 48.1875 50.953125 41.515625 
Q 57.328125 34.859375 57.328125 23.390625 
Q 57.328125 12.15625 50.6875 5.359375 
Q 44.046875 -1.421875 33.015625 -1.421875 
Q 20.359375 -1.421875 13.671875 8.265625 
Q 6.984375 17.96875 6.984375 36.375 
Q 6.984375 53.65625 15.1875 63.9375 
Q 23.390625 74.21875 37.203125 74.21875 
Q 40.921875 74.21875 44.703125 73.484375 
Q 48.484375 72.75 52.59375 71.296875 
z
" id="DejaVuSans-54"/>
       </defs>
       <use xlink:href="#DejaVuSans-48"/>
       <use x="63.623047" xlink:href="#DejaVuSans-46"/>
       <use x="95.410156" xlink:href="#DejaVuSans-54"/>
      </g>
     </g>
    </g>
    <g id="xtick_5">
     <g id="line2d_5">
      <g>
       <use style="stroke:#000000;stroke-width:0.8;" x="312.709091" xlink:href="#m940a8dfe75" y="252"/>
      </g>
     </g>
     <g id="text_5">
      <!-- 0.8 -->
      <g transform="translate(304.757528 266.598437)scale(0.1 -0.1)">
       <defs>
        <path d="M 31.78125 34.625 
Q 24.75 34.625 20.71875 30.859375 
Q 16.703125 27.09375 16.703125 20.515625 
Q 16.703125 13.921875 20.71875 10.15625 
Q 24.75 6.390625 31.78125 6.390625 
Q 38.8125 6.390625 42.859375 10.171875 
Q 46.921875 13.96875 46.921875 20.515625 
Q 46.921875 27.09375 42.890625 30.859375 
Q 38.875 34.625 31.78125 34.625 
z
M 21.921875 38.8125 
Q 15.578125 40.375 12.03125 44.71875 
Q 8.5 49.078125 8.5 55.328125 
Q 8.5 64.0625 14.71875 69.140625 
Q 20.953125 74.21875 31.78125 74.21875 
Q 42.671875 74.21875 48.875 69.140625 
Q 55.078125 64.0625 55.078125 55.328125 
Q 55.078125 49.078125 51.53125 44.71875 
Q 48 40.375 41.703125 38.8125 
Q 48.828125 37.15625 52.796875 32.3125 
Q 56.78125 27.484375 56.78125 20.515625 
Q 56.78125 9.90625 50.3125 4.234375 
Q 43.84375 -1.421875 31.78125 -1.421875 
Q 19.734375 -1.421875 13.25 4.234375 
Q 6.78125 9.90625 6.78125 20.515625 
Q 6.78125 27.484375 10.78125 32.3125 
Q 14.796875 37.15625 21.921875 38.8125 
z
M 18.3125 54.390625 
Q 18.3125 48.734375 21.84375 45.5625 
Q 25.390625 42.390625 31.78125 42.390625 
Q 38.140625 42.390625 41.71875 45.5625 
Q 45.3125 48.734375 45.3125 54.390625 
Q 45.3125 60.0625 41.71875 63.234375 
Q 38.140625 66.40625 31.78125 66.40625 
Q 25.390625 66.40625 21.84375 63.234375 
Q 18.3125 60.0625 18.3125 54.390625 
z
" id="DejaVuSans-56"/>
       </defs>
       <use xlink:href="#DejaVuSans-48"/>
       <use x="63.623047" xlink:href="#DejaVuSans-46"/>
       <use x="95.410156" xlink:href="#DejaVuSans-56"/>
      </g>
     </g>
    </g>
    <g id="xtick_6">
     <g id="line2d_6">
      <g>
       <use style="stroke:#000000;stroke-width:0.8;" x="373.581818" xlink:href="#m940a8dfe75" y="252"/>
      </g>
     </g>
     <g id="text_6">
      <!-- 1.0 -->
      <g transform="translate(365.630256 266.598437)scale(0.1 -0.1)">
       <defs>
        <path d="M 12.40625 8.296875 
L 28.515625 8.296875 
L 28.515625 63.921875 
L 10.984375 60.40625 
L 10.984375 69.390625 
L 28.421875 72.90625 
L 38.28125 72.90625 
L 38.28125 8.296875 
L 54.390625 8.296875 
L 54.390625 0 
L 12.40625 0 
z
" id="DejaVuSans-49"/>
       </defs>
       <use xlink:href="#DejaVuSans-49"/>
       <use x="63.623047" xlink:href="#DejaVuSans-46"/>
       <use x="95.410156" xlink:href="#DejaVuSans-48"/>
      </g>
     </g>
    </g>
    <g id="text_7">
     <!-- False positive rate -->
     <g transform="translate(175.899219 280.276563)scale(0.1 -0.1)">
      <defs>
       <path d="M 9.8125 72.90625 
L 51.703125 72.90625 
L 51.703125 64.59375 
L 19.671875 64.59375 
L 19.671875 43.109375 
L 48.578125 43.109375 
L 48.578125 34.8125 
L 19.671875 34.8125 
L 19.671875 0 
L 9.8125 0 
z
" id="DejaVuSans-70"/>
       <path d="M 34.28125 27.484375 
Q 23.390625 27.484375 19.1875 25 
Q 14.984375 22.515625 14.984375 16.5 
Q 14.984375 11.71875 18.140625 8.90625 
Q 21.296875 6.109375 26.703125 6.109375 
Q 34.1875 6.109375 38.703125 11.40625 
Q 43.21875 16.703125 43.21875 25.484375 
L 43.21875 27.484375 
z
M 52.203125 31.203125 
L 52.203125 0 
L 43.21875 0 
L 43.21875 8.296875 
Q 40.140625 3.328125 35.546875 0.953125 
Q 30.953125 -1.421875 24.3125 -1.421875 
Q 15.921875 -1.421875 10.953125 3.296875 
Q 6 8.015625 6 15.921875 
Q 6 25.140625 12.171875 29.828125 
Q 18.359375 34.515625 30.609375 34.515625 
L 43.21875 34.515625 
L 43.21875 35.40625 
Q 43.21875 41.609375 39.140625 45 
Q 35.0625 48.390625 27.6875 48.390625 
Q 23 48.390625 18.546875 47.265625 
Q 14.109375 46.140625 10.015625 43.890625 
L 10.015625 52.203125 
Q 14.9375 54.109375 19.578125 55.046875 
Q 24.21875 56 28.609375 56 
Q 40.484375 56 46.34375 49.84375 
Q 52.203125 43.703125 52.203125 31.203125 
z
" id="DejaVuSans-97"/>
       <path d="M 9.421875 75.984375 
L 18.40625 75.984375 
L 18.40625 0 
L 9.421875 0 
z
" id="DejaVuSans-108"/>
       <path d="M 44.28125 53.078125 
L 44.28125 44.578125 
Q 40.484375 46.53125 36.375 47.5 
Q 32.28125 48.484375 27.875 48.484375 
Q 21.1875 48.484375 17.84375 46.4375 
Q 14.5 44.390625 14.5 40.28125 
Q 14.5 37.15625 16.890625 35.375 
Q 19.28125 33.59375 26.515625 31.984375 
L 29.59375 31.296875 
Q 39.15625 29.25 43.1875 25.515625 
Q 47.21875 21.78125 47.21875 15.09375 
Q 47.21875 7.46875 41.1875 3.015625 
Q 35.15625 -1.421875 24.609375 -1.421875 
Q 20.21875 -1.421875 15.453125 -0.5625 
Q 10.6875 0.296875 5.421875 2 
L 5.421875 11.28125 
Q 10.40625 8.6875 15.234375 7.390625 
Q 20.0625 6.109375 24.8125 6.109375 
Q 31.15625 6.109375 34.5625 8.28125 
Q 37.984375 10.453125 37.984375 14.40625 
Q 37.984375 18.0625 35.515625 20.015625 
Q 33.0625 21.96875 24.703125 23.78125 
L 21.578125 24.515625 
Q 13.234375 26.265625 9.515625 29.90625 
Q 5.8125 33.546875 5.8125 39.890625 
Q 5.8125 47.609375 11.28125 51.796875 
Q 16.75 56 26.8125 56 
Q 31.78125 56 36.171875 55.265625 
Q 40.578125 54.546875 44.28125 53.078125 
z
" id="DejaVuSans-115"/>
       <path d="M 56.203125 29.59375 
L 56.203125 25.203125 
L 14.890625 25.203125 
Q 15.484375 15.921875 20.484375 11.0625 
Q 25.484375 6.203125 34.421875 6.203125 
Q 39.59375 6.203125 44.453125 7.46875 
Q 49.3125 8.734375 54.109375 11.28125 
L 54.109375 2.78125 
Q 49.265625 0.734375 44.1875 -0.34375 
Q 39.109375 -1.421875 33.890625 -1.421875 
Q 20.796875 -1.421875 13.15625 6.1875 
Q 5.515625 13.8125 5.515625 26.8125 
Q 5.515625 40.234375 12.765625 48.109375 
Q 20.015625 56 32.328125 56 
Q 43.359375 56 49.78125 48.890625 
Q 56.203125 41.796875 56.203125 29.59375 
z
M 47.21875 32.234375 
Q 47.125 39.59375 43.09375 43.984375 
Q 39.0625 48.390625 32.421875 48.390625 
Q 24.90625 48.390625 20.390625 44.140625 
Q 15.875 39.890625 15.1875 32.171875 
z
" id="DejaVuSans-101"/>
       <path id="DejaVuSans-32"/>
       <path d="M 18.109375 8.203125 
L 18.109375 -20.796875 
L 9.078125 -20.796875 
L 9.078125 54.6875 
L 18.109375 54.6875 
L 18.109375 46.390625 
Q 20.953125 51.265625 25.265625 53.625 
Q 29.59375 56 35.59375 56 
Q 45.5625 56 51.78125 48.09375 
Q 58.015625 40.1875 58.015625 27.296875 
Q 58.015625 14.40625 51.78125 6.484375 
Q 45.5625 -1.421875 35.59375 -1.421875 
Q 29.59375 -1.421875 25.265625 0.953125 
Q 20.953125 3.328125 18.109375 8.203125 
z
M 48.6875 27.296875 
Q 48.6875 37.203125 44.609375 42.84375 
Q 40.53125 48.484375 33.40625 48.484375 
Q 26.265625 48.484375 22.1875 42.84375 
Q 18.109375 37.203125 18.109375 27.296875 
Q 18.109375 17.390625 22.1875 11.75 
Q 26.265625 6.109375 33.40625 6.109375 
Q 40.53125 6.109375 44.609375 11.75 
Q 48.6875 17.390625 48.6875 27.296875 
z
" id="DejaVuSans-112"/>
       <path d="M 30.609375 48.390625 
Q 23.390625 48.390625 19.1875 42.75 
Q 14.984375 37.109375 14.984375 27.296875 
Q 14.984375 17.484375 19.15625 11.84375 
Q 23.34375 6.203125 30.609375 6.203125 
Q 37.796875 6.203125 41.984375 11.859375 
Q 46.1875 17.53125 46.1875 27.296875 
Q 46.1875 37.015625 41.984375 42.703125 
Q 37.796875 48.390625 30.609375 48.390625 
z
M 30.609375 56 
Q 42.328125 56 49.015625 48.375 
Q 55.71875 40.765625 55.71875 27.296875 
Q 55.71875 13.875 49.015625 6.21875 
Q 42.328125 -1.421875 30.609375 -1.421875 
Q 18.84375 -1.421875 12.171875 6.21875 
Q 5.515625 13.875 5.515625 27.296875 
Q 5.515625 40.765625 12.171875 48.375 
Q 18.84375 56 30.609375 56 
z
" id="DejaVuSans-111"/>
       <path d="M 9.421875 54.6875 
L 18.40625 54.6875 
L 18.40625 0 
L 9.421875 0 
z
M 9.421875 75.984375 
L 18.40625 75.984375 
L 18.40625 64.59375 
L 9.421875 64.59375 
z
" id="DejaVuSans-105"/>
       <path d="M 18.3125 70.21875 
L 18.3125 54.6875 
L 36.8125 54.6875 
L 36.8125 47.703125 
L 18.3125 47.703125 
L 18.3125 18.015625 
Q 18.3125 11.328125 20.140625 9.421875 
Q 21.96875 7.515625 27.59375 7.515625 
L 36.8125 7.515625 
L 36.8125 0 
L 27.59375 0 
Q 17.1875 0 13.234375 3.875 
Q 9.28125 7.765625 9.28125 18.015625 
L 9.28125 47.703125 
L 2.6875 47.703125 
L 2.6875 54.6875 
L 9.28125 54.6875 
L 9.28125 70.21875 
z
" id="DejaVuSans-116"/>
       <path d="M 2.984375 54.6875 
L 12.5 54.6875 
L 29.59375 8.796875 
L 46.6875 54.6875 
L 56.203125 54.6875 
L 35.6875 0 
L 23.484375 0 
z
" id="DejaVuSans-118"/>
       <path d="M 41.109375 46.296875 
Q 39.59375 47.171875 37.8125 47.578125 
Q 36.03125 48 33.890625 48 
Q 26.265625 48 22.1875 43.046875 
Q 18.109375 38.09375 18.109375 28.8125 
L 18.109375 0 
L 9.078125 0 
L 9.078125 54.6875 
L 18.109375 54.6875 
L 18.109375 46.1875 
Q 20.953125 51.171875 25.484375 53.578125 
Q 30.03125 56 36.53125 56 
Q 37.453125 56 38.578125 55.875 
Q 39.703125 55.765625 41.0625 55.515625 
z
" id="DejaVuSans-114"/>
      </defs>
      <use xlink:href="#DejaVuSans-70"/>
      <use x="48.394531" xlink:href="#DejaVuSans-97"/>
      <use x="109.673828" xlink:href="#DejaVuSans-108"/>
      <use x="137.457031" xlink:href="#DejaVuSans-115"/>
      <use x="189.556641" xlink:href="#DejaVuSans-101"/>
      <use x="251.080078" xlink:href="#DejaVuSans-32"/>
      <use x="282.867188" xlink:href="#DejaVuSans-112"/>
      <use x="346.34375" xlink:href="#DejaVuSans-111"/>
      <use x="407.525391" xlink:href="#DejaVuSans-115"/>
      <use x="459.625" xlink:href="#DejaVuSans-105"/>
      <use x="487.408203" xlink:href="#DejaVuSans-116"/>
      <use x="526.617188" xlink:href="#DejaVuSans-105"/>
      <use x="554.400391" xlink:href="#DejaVuSans-118"/>
      <use x="613.580078" xlink:href="#DejaVuSans-101"/>
      <use x="675.103516" xlink:href="#DejaVuSans-32"/>
      <use x="706.890625" xlink:href="#DejaVuSans-114"/>
      <use x="748.003906" xlink:href="#DejaVuSans-97"/>
      <use x="809.283203" xlink:href="#DejaVuSans-116"/>
      <use x="848.492188" xlink:href="#DejaVuSans-101"/>
     </g>
    </g>
   </g>
   <g id="matplotlib.axis_2">
    <g id="ytick_1">
     <g id="line2d_7">
      <defs>
       <path d="M 0 0 
L -3.5 0 
" id="m7e28d75f78" style="stroke:#000000;stroke-width:0.8;"/>
      </defs>
      <g>
       <use style="stroke:#000000;stroke-width:0.8;" x="54" xlink:href="#m7e28d75f78" y="242.116364"/>
      </g>
     </g>
     <g id="text_8">
      <!-- 0.0 -->
      <g transform="translate(31.096875 245.915582)scale(0.1 -0.1)">
       <use xlink:href="#DejaVuSans-48"/>
       <use x="63.623047" xlink:href="#DejaVuSans-46"/>
       <use x="95.410156" xlink:href="#DejaVuSans-48"/>
      </g>
     </g>
    </g>
    <g id="ytick_2">
     <g id="line2d_8">
      <g>
       <use style="stroke:#000000;stroke-width:0.8;" x="54" xlink:href="#m7e28d75f78" y="202.581818"/>
      </g>
     </g>
     <g id="text_9">
      <!-- 0.2 -->
      <g transform="translate(31.096875 206.381037)scale(0.1 -0.1)">
       <use xlink:href="#DejaVuSans-48"/>
       <use x="63.623047" xlink:href="#DejaVuSans-46"/>
       <use x="95.410156" xlink:href="#DejaVuSans-50"/>
      </g>
     </g>
    </g>
    <g id="ytick_3">
     <g id="line2d_9">
      <g>
       <use style="stroke:#000000;stroke-width:0.8;" x="54" xlink:href="#m7e28d75f78" y="163.047273"/>
      </g>
     </g>
     <g id="text_10">
      <!-- 0.4 -->
      <g transform="translate(31.096875 166.846491)scale(0.1 -0.1)">
       <use xlink:href="#DejaVuSans-48"/>
       <use x="63.623047" xlink:href="#DejaVuSans-46"/>
       <use x="95.410156" xlink:href="#DejaVuSans-52"/>
      </g>
     </g>
    </g>
    <g id="ytick_4">
     <g id="line2d_10">
      <g>
       <use style="stroke:#000000;stroke-width:0.8;" x="54" xlink:href="#m7e28d75f78" y="123.512727"/>
      </g>
     </g>
     <g id="text_11">
      <!-- 0.6 -->
      <g transform="translate(31.096875 127.311946)scale(0.1 -0.1)">
       <use xlink:href="#DejaVuSans-48"/>
       <use x="63.623047" xlink:href="#DejaVuSans-46"/>
       <use x="95.410156" xlink:href="#DejaVuSans-54"/>
      </g>
     </g>
    </g>
    <g id="ytick_5">
     <g id="line2d_11">
      <g>
       <use style="stroke:#000000;stroke-width:0.8;" x="54" xlink:href="#m7e28d75f78" y="83.978182"/>
      </g>
     </g>
     <g id="text_12">
      <!-- 0.8 -->
      <g transform="translate(31.096875 87.777401)scale(0.1 -0.1)">
       <use xlink:href="#DejaVuSans-48"/>
       <use x="63.623047" xlink:href="#DejaVuSans-46"/>
       <use x="95.410156" xlink:href="#DejaVuSans-56"/>
      </g>
     </g>
    </g>
    <g id="ytick_6">
     <g id="line2d_12">
      <g>
       <use style="stroke:#000000;stroke-width:0.8;" x="54" xlink:href="#m7e28d75f78" y="44.443636"/>
      </g>
     </g>
     <g id="text_13">
      <!-- 1.0 -->
      <g transform="translate(31.096875 48.242855)scale(0.1 -0.1)">
       <use xlink:href="#DejaVuSans-49"/>
       <use x="63.623047" xlink:href="#DejaVuSans-46"/>
       <use x="95.410156" xlink:href="#DejaVuSans-48"/>
      </g>
     </g>
    </g>
    <g id="text_14">
     <!-- True positive rate -->
     <g transform="translate(25.017187 186.844063)rotate(-90)scale(0.1 -0.1)">
      <defs>
       <path d="M -0.296875 72.90625 
L 61.375 72.90625 
L 61.375 64.59375 
L 35.5 64.59375 
L 35.5 0 
L 25.59375 0 
L 25.59375 64.59375 
L -0.296875 64.59375 
z
" id="DejaVuSans-84"/>
       <path d="M 8.5 21.578125 
L 8.5 54.6875 
L 17.484375 54.6875 
L 17.484375 21.921875 
Q 17.484375 14.15625 20.5 10.265625 
Q 23.53125 6.390625 29.59375 6.390625 
Q 36.859375 6.390625 41.078125 11.03125 
Q 45.3125 15.671875 45.3125 23.6875 
L 45.3125 54.6875 
L 54.296875 54.6875 
L 54.296875 0 
L 45.3125 0 
L 45.3125 8.40625 
Q 42.046875 3.421875 37.71875 1 
Q 33.40625 -1.421875 27.6875 -1.421875 
Q 18.265625 -1.421875 13.375 4.4375 
Q 8.5 10.296875 8.5 21.578125 
z
M 31.109375 56 
z
" id="DejaVuSans-117"/>
      </defs>
      <use xlink:href="#DejaVuSans-84"/>
      <use x="46.333984" xlink:href="#DejaVuSans-114"/>
      <use x="87.447266" xlink:href="#DejaVuSans-117"/>
      <use x="150.826172" xlink:href="#DejaVuSans-101"/>
      <use x="212.349609" xlink:href="#DejaVuSans-32"/>
      <use x="244.136719" xlink:href="#DejaVuSans-112"/>
      <use x="307.613281" xlink:href="#DejaVuSans-111"/>
      <use x="368.794922" xlink:href="#DejaVuSans-115"/>
      <use x="420.894531" xlink:href="#DejaVuSans-105"/>
      <use x="448.677734" xlink:href="#DejaVuSans-116"/>
      <use x="487.886719" xlink:href="#DejaVuSans-105"/>
      <use x="515.669922" xlink:href="#DejaVuSans-118"/>
      <use x="574.849609" xlink:href="#DejaVuSans-101"/>
      <use x="636.373047" xlink:href="#DejaVuSans-32"/>
      <use x="668.160156" xlink:href="#DejaVuSans-114"/>
      <use x="709.273438" xlink:href="#DejaVuSans-97"/>
      <use x="770.552734" xlink:href="#DejaVuSans-116"/>
      <use x="809.761719" xlink:href="#DejaVuSans-101"/>
     </g>
    </g>
   </g>
   <g id="line2d_13">
    <path clip-path="url(#pd136a1b75c)" d="M 69.218182 242.116364 
L 69.218182 239.956006 
L 69.567223 239.956006 
L 69.567223 235.635291 
L 69.916264 235.635291 
L 69.916264 235.095201 
L 70.265304 235.095201 
L 70.265304 234.015022 
L 72.35955 234.015022 
L 72.35955 233.474933 
L 72.70859 233.474933 
L 72.70859 231.854665 
L 73.406672 231.854665 
L 73.406672 230.774486 
L 74.453795 230.774486 
L 74.453795 230.234396 
L 76.897081 230.234396 
L 76.897081 229.694307 
L 78.293244 229.694307 
L 78.293244 229.154218 
L 87.717348 229.154218 
L 87.717348 228.614128 
L 90.858716 228.614128 
L 90.858716 228.074039 
L 91.207756 228.074039 
L 91.207756 227.533949 
L 95.396247 227.533949 
L 95.396247 226.99386 
L 100.980901 226.99386 
L 102.377064 226.45377 
L 107.263636 226.45377 
L 107.263636 225.913681 
L 109.357882 225.913681 
L 109.357882 224.833502 
L 109.706922 224.833502 
L 109.706922 223.753323 
L 110.405004 223.753323 
L 110.754045 223.213234 
L 112.84829 223.213234 
L 112.84829 222.673145 
L 118.781985 222.673145 
L 118.781985 222.133055 
L 119.480067 222.133055 
L 119.480067 221.592966 
L 123.319516 221.592966 
L 124.017598 221.052876 
L 124.366639 221.052876 
L 124.366639 219.972697 
L 126.460884 219.972697 
L 126.460884 218.892519 
L 128.90417 218.892519 
L 129.602252 218.352429 
L 132.74362 218.352429 
L 132.74362 217.81234 
L 133.092661 217.81234 
L 133.092661 217.27225 
L 134.139783 217.27225 
L 134.139783 216.732161 
L 135.535947 216.732161 
L 135.535947 216.192072 
L 140.422519 216.192072 
L 140.422519 215.651982 
L 140.77156 215.651982 
L 140.77156 215.111893 
L 141.120601 215.111893 
L 141.120601 214.571803 
L 141.469641 214.571803 
L 141.469641 214.031714 
L 143.563887 214.031714 
L 143.563887 212.411446 
L 144.611009 212.411446 
L 144.611009 211.871356 
L 145.309091 211.871356 
L 145.309091 211.331267 
L 145.658132 211.331267 
L 145.658132 210.791177 
L 147.403336 210.791177 
L 147.752377 210.251088 
L 149.846622 210.251088 
L 149.846622 209.710999 
L 150.544704 209.710999 
L 150.544704 209.170909 
L 151.242786 208.63082 
L 151.940867 208.63082 
L 151.940867 208.09073 
L 152.289908 207.550641 
L 152.98799 207.550641 
L 152.98799 207.010551 
L 154.384153 207.010551 
L 154.384153 206.470462 
L 156.82744 206.470462 
L 156.82744 205.930373 
L 158.921685 205.930373 
L 158.921685 205.390283 
L 159.619766 205.390283 
L 159.619766 204.850194 
L 159.968807 204.850194 
L 159.968807 204.310104 
L 161.01593 204.310104 
L 161.01593 203.770015 
L 161.364971 203.770015 
L 161.364971 202.689836 
L 161.714012 202.689836 
L 161.714012 202.149747 
L 162.412093 202.149747 
L 162.412093 201.609657 
L 164.855379 201.609657 
L 164.855379 201.069568 
L 165.902502 201.069568 
L 165.902502 199.4493 
L 166.251543 199.4493 
L 166.251543 198.90921 
L 167.298666 198.90921 
L 167.298666 198.369121 
L 168.694829 198.369121 
L 168.694829 197.288942 
L 170.440033 197.288942 
L 170.440033 196.208763 
L 170.789074 196.208763 
L 171.138115 195.668674 
L 171.487156 195.668674 
L 172.185238 195.128584 
L 176.722769 195.128584 
L 176.722769 194.588495 
L 177.07181 194.588495 
L 177.07181 194.048405 
L 178.817014 194.048405 
L 178.817014 193.508316 
L 179.166055 193.508316 
L 179.166055 192.428137 
L 179.864137 192.428137 
L 179.864137 189.72769 
L 180.911259 189.72769 
L 180.911259 189.187601 
L 183.354545 189.187601 
L 183.354545 188.107422 
L 184.401668 188.107422 
L 184.401668 187.027243 
L 186.844954 187.027243 
L 186.844954 184.866885 
L 187.543036 184.866885 
L 187.543036 182.706528 
L 188.241118 182.706528 
L 188.241118 181.086259 
L 189.986322 181.086259 
L 189.986322 180.00608 
L 192.080567 180.00608 
L 192.080567 178.925902 
L 196.967139 178.925902 
L 196.967139 178.385812 
L 197.31618 178.385812 
L 197.31618 177.305633 
L 197.665221 177.305633 
L 197.665221 176.225455 
L 198.014262 176.225455 
L 198.014262 175.685365 
L 199.410425 175.685365 
L 199.410425 175.145276 
L 199.759466 174.605186 
L 200.806589 174.605186 
L 200.806589 173.525007 
L 201.15563 173.525007 
L 201.15563 172.984918 
L 201.853711 172.984918 
L 201.853711 171.904739 
L 202.202752 171.904739 
L 202.202752 171.36465 
L 204.296997 171.36465 
L 204.296997 170.82456 
L 205.693161 170.82456 
L 206.042202 170.284471 
L 207.089324 170.284471 
L 207.787406 169.744382 
L 208.136447 169.744382 
L 208.136447 169.204292 
L 209.881651 169.204292 
L 209.881651 168.664203 
L 211.626856 168.664203 
L 211.626856 167.043934 
L 211.975897 167.043934 
L 211.975897 166.503845 
L 213.023019 166.503845 
L 213.023019 165.963756 
L 213.721101 165.963756 
L 213.721101 165.423666 
L 214.768224 165.423666 
L 214.768224 164.883577 
L 215.466305 164.883577 
L 215.466305 163.263308 
L 216.862469 163.263308 
L 216.862469 162.723219 
L 217.21151 162.723219 
L 217.21151 162.18313 
L 220.701918 162.18313 
L 220.701918 161.64304 
L 222.447123 161.64304 
L 222.447123 160.562861 
L 222.796163 160.562861 
L 222.796163 160.022772 
L 223.145204 160.022772 
L 223.145204 159.482683 
L 223.494245 159.482683 
L 223.494245 158.402504 
L 225.23945 158.402504 
L 225.23945 157.862414 
L 228.380817 157.862414 
L 228.729858 157.322325 
L 229.42794 156.782235 
L 231.871226 156.782235 
L 232.569308 156.242146 
L 232.918349 156.242146 
L 233.267389 155.702057 
L 235.012594 155.702057 
L 235.012594 155.161967 
L 235.361635 155.161967 
L 235.361635 154.081788 
L 235.710676 154.081788 
L 235.710676 153.541699 
L 241.64437 153.541699 
L 241.64437 153.00161 
L 242.342452 153.00161 
L 242.342452 152.46152 
L 244.087656 152.46152 
L 244.087656 151.921431 
L 244.785738 151.921431 
L 244.785738 151.381341 
L 245.134779 151.381341 
L 245.48382 150.841252 
L 246.530942 150.841252 
L 246.530942 150.301162 
L 247.927106 150.301162 
L 247.927106 149.761073 
L 249.323269 149.761073 
L 249.323269 148.680894 
L 250.719433 148.680894 
L 250.719433 147.060626 
L 252.464637 147.060626 
L 252.464637 145.440358 
L 254.209842 145.440358 
L 254.209842 144.900268 
L 254.558882 144.900268 
L 254.558882 144.360179 
L 254.907923 143.820089 
L 256.304087 143.820089 
L 256.304087 143.28 
L 257.002168 143.28 
L 257.002168 142.199821 
L 257.351209 142.199821 
L 257.351209 141.659732 
L 258.049291 141.659732 
L 258.049291 140.579553 
L 258.398332 140.579553 
L 258.398332 140.039463 
L 259.096414 140.039463 
L 259.096414 139.499374 
L 260.492577 139.499374 
L 260.492577 138.419195 
L 261.5397 138.419195 
L 261.5397 137.879106 
L 262.237781 137.879106 
L 262.237781 136.798927 
L 263.633945 136.798927 
L 263.633945 135.178659 
L 264.332027 135.178659 
L 265.030108 134.638569 
L 269.56764 134.638569 
L 269.56764 133.55839 
L 269.916681 133.55839 
L 269.916681 132.478212 
L 273.75613 132.478212 
L 273.75613 131.398033 
L 274.803253 131.398033 
L 275.501334 130.857943 
L 277.59558 130.857943 
L 277.59558 130.317854 
L 277.944621 130.317854 
L 277.944621 129.777765 
L 278.642702 129.777765 
L 278.642702 129.237675 
L 279.340784 129.237675 
L 279.340784 128.157496 
L 280.038866 128.157496 
L 280.038866 127.617407 
L 281.085988 127.617407 
L 281.085988 127.077317 
L 282.133111 127.077317 
L 282.133111 126.537228 
L 282.482152 126.537228 
L 282.482152 125.997139 
L 284.227356 125.997139 
L 284.576397 125.457049 
L 284.576397 124.91696 
L 285.62352 124.91696 
L 285.62352 123.296692 
L 286.670642 123.296692 
L 286.670642 122.756602 
L 288.066806 122.756602 
L 288.066806 122.216513 
L 289.81201 122.216513 
L 289.81201 121.136334 
L 291.557214 121.136334 
L 291.906255 119.516066 
L 292.953378 119.516066 
L 293.65146 118.435887 
L 294.349541 118.435887 
L 294.349541 117.895797 
L 295.396664 117.895797 
L 295.396664 117.355708 
L 296.792827 117.355708 
L 297.141868 116.815618 
L 298.538032 115.73544 
L 299.236113 115.73544 
L 299.236113 113.575082 
L 299.585154 113.575082 
L 299.585154 111.954814 
L 299.934195 111.954814 
L 299.934195 111.414724 
L 300.283236 110.874635 
L 300.632277 110.874635 
L 301.330359 110.334545 
L 302.377481 110.334545 
L 302.377481 109.254367 
L 302.726522 109.254367 
L 302.726522 108.714277 
L 305.169808 108.714277 
L 305.169808 107.634098 
L 305.518849 107.634098 
L 305.518849 106.55392 
L 305.86789 106.55392 
L 305.86789 103.853472 
L 306.216931 103.853472 
L 306.216931 103.313383 
L 306.565972 103.313383 
L 306.565972 102.773294 
L 307.613094 102.773294 
L 307.962135 102.233204 
L 307.962135 101.153025 
L 308.311176 101.153025 
L 308.311176 100.612936 
L 310.05638 100.612936 
L 310.05638 100.072846 
L 312.150626 100.072846 
L 312.150626 98.452578 
L 313.546789 98.452578 
L 313.546789 97.372399 
L 314.244871 97.372399 
L 314.244871 96.83231 
L 314.942952 96.83231 
L 314.942952 96.292221 
L 315.641034 96.292221 
L 315.641034 95.752131 
L 316.688157 95.752131 
L 316.688157 95.212042 
L 317.037198 95.212042 
L 317.037198 94.671952 
L 318.08432 94.671952 
L 318.433361 94.131863 
L 319.829525 94.131863 
L 321.225688 93.051684 
L 321.92377 93.051684 
L 322.272811 92.511595 
L 324.716097 92.511595 
L 326.11226 91.971505 
L 326.11226 91.431416 
L 327.159383 91.431416 
L 327.159383 90.891326 
L 327.508424 90.891326 
L 327.508424 90.351237 
L 328.206505 90.351237 
L 328.206505 89.811148 
L 329.253628 89.811148 
L 329.253628 89.271058 
L 329.95171 89.271058 
L 329.95171 88.190879 
L 330.300751 88.190879 
L 330.300751 87.65079 
L 331.696914 87.65079 
L 331.696914 87.1107 
L 332.045955 87.1107 
L 332.045955 86.030522 
L 333.442118 86.030522 
L 333.442118 85.490432 
L 335.187323 85.490432 
L 335.536364 84.950343 
L 335.885405 84.950343 
L 335.885405 84.410253 
L 337.281568 84.410253 
L 337.281568 82.789985 
L 337.630609 82.789985 
L 337.630609 81.169717 
L 338.677731 81.169717 
L 339.375813 80.629627 
L 339.375813 80.089538 
L 339.724854 80.089538 
L 339.724854 78.46927 
L 340.073895 78.46927 
L 340.073895 76.849001 
L 342.16814 76.849001 
L 342.16814 74.688644 
L 342.517181 74.688644 
L 342.866222 74.148554 
L 343.215263 74.148554 
L 343.215263 73.068376 
L 343.564304 73.068376 
L 343.564304 72.528286 
L 343.913344 72.528286 
L 344.611426 71.448107 
L 345.309508 71.448107 
L 345.309508 70.908018 
L 348.101835 70.908018 
L 348.101835 70.367928 
L 348.799917 70.367928 
L 348.799917 69.827839 
L 350.19608 69.827839 
L 350.19608 69.28775 
L 350.545121 69.28775 
L 350.545121 68.74766 
L 352.290325 68.74766 
L 352.290325 68.207571 
L 352.988407 68.207571 
L 352.988407 67.667481 
L 353.337448 67.667481 
L 353.337448 67.127392 
L 354.03553 67.127392 
L 354.03553 66.587303 
L 354.38457 66.587303 
L 354.38457 65.507124 
L 355.431693 65.507124 
L 355.431693 64.967034 
L 358.22402 64.967034 
L 358.22402 64.426945 
L 358.922102 64.426945 
L 358.922102 63.886855 
L 359.969224 63.886855 
L 359.969224 61.726498 
L 360.318265 61.726498 
L 360.318265 59.56614 
L 361.016347 59.026051 
L 361.714429 59.026051 
L 361.714429 58.485961 
L 363.110592 58.485961 
L 363.110592 56.325604 
L 364.157715 56.325604 
L 364.157715 54.165246 
L 365.553878 54.165246 
L 365.553878 53.085067 
L 366.25196 53.085067 
L 366.25196 52.544978 
L 366.950042 52.544978 
L 366.950042 52.004888 
L 367.997164 52.004888 
L 367.997164 51.464799 
L 370.09141 51.464799 
L 370.09141 49.844531 
L 370.44045 49.844531 
L 370.44045 48.764352 
L 371.138532 48.764352 
L 371.138532 46.603994 
L 372.185655 46.603994 
L 372.185655 44.983726 
L 372.883736 44.983726 
L 372.883736 44.443636 
L 373.581818 44.443636 
L 373.581818 44.443636 
" style="fill:none;stroke:#1f77b4;stroke-linecap:square;"/>
   </g>
   <g id="line2d_14">
    <path clip-path="url(#pd136a1b75c)" d="M 69.218182 242.116364 
L 69.916264 235.635291 
L 72.70859 231.314575 
L 73.406672 231.314575 
L 74.453795 228.614128 
L 88.41543 212.951535 
L 90.160634 209.170909 
L 93.302002 205.390283 
L 110.754045 183.786706 
L 112.150209 182.706528 
L 114.942535 182.706528 
L 161.714012 143.28 
L 209.532611 108.714277 
L 259.096414 80.089538 
L 262.935863 77.389091 
L 263.284904 76.849001 
L 270.963803 73.608465 
L 317.386239 55.245425 
L 333.093078 52.544978 
L 337.281568 51.464799 
L 339.724854 50.38462 
L 371.138532 46.603994 
L 373.581818 44.443636 
" style="fill:none;stroke:#ff7f0e;stroke-linecap:square;"/>
   </g>
   <g id="line2d_15">
    <path clip-path="url(#pd136a1b75c)" d="M 69.218182 242.116364 
L 70.614345 236.715469 
L 84.925021 222.673145 
L 121.923353 188.107422 
L 184.401668 137.339016 
L 284.576397 79.549449 
L 373.581818 44.443636 
" style="fill:none;stroke:#2ca02c;stroke-linecap:square;"/>
   </g>
   <g id="line2d_16">
    <path clip-path="url(#pd136a1b75c)" d="M 69.218182 242.116364 
L 69.567223 242.116364 
L 69.916264 240.496095 
L 69.916264 238.875827 
L 74.453795 237.795648 
L 74.453795 237.255559 
L 74.802836 235.635291 
L 74.802836 234.555112 
L 75.849958 234.015022 
L 75.849958 233.474933 
L 77.944204 230.774486 
L 77.944204 226.45377 
L 83.877898 221.052876 
L 83.877898 220.512787 
L 84.226939 219.432608 
L 84.226939 218.892519 
L 85.274062 218.892519 
L 85.274062 218.352429 
L 85.623103 218.352429 
L 86.670225 217.81234 
L 86.670225 217.27225 
L 87.717348 217.27225 
L 88.066389 215.111893 
L 88.76447 214.031714 
L 89.113511 212.411446 
L 89.113511 211.871356 
L 89.811593 210.791177 
L 90.858716 210.251088 
L 90.858716 208.63082 
L 93.302002 207.010551 
L 94.000083 207.010551 
L 94.349124 206.470462 
L 95.745288 203.770015 
L 97.839533 203.770015 
L 98.537615 202.689836 
L 98.886656 202.689836 
L 99.235696 202.149747 
L 99.235696 201.609657 
L 99.933778 201.609657 
L 99.933778 199.989389 
L 100.980901 198.369121 
L 102.028023 198.369121 
L 102.377064 197.829031 
L 103.773228 197.288942 
L 103.773228 196.748852 
L 104.122269 196.748852 
L 104.471309 195.668674 
L 105.169391 195.668674 
L 105.518432 195.128584 
L 105.867473 195.128584 
L 105.867473 194.588495 
L 106.216514 192.968227 
L 106.216514 192.428137 
L 110.055963 186.487154 
L 111.452127 185.947064 
L 115.989658 181.626349 
L 116.338699 181.086259 
L 117.036781 181.086259 
L 117.385822 180.54617 
L 117.385822 178.925902 
L 119.131026 177.845723 
L 125.762802 168.664203 
L 126.460884 168.664203 
L 127.508007 167.584024 
L 127.857048 167.584024 
L 129.602252 166.503845 
L 129.951293 165.423666 
L 130.300334 164.883577 
L 130.300334 164.343487 
L 130.649374 162.18313 
L 132.045538 160.022772 
L 134.488824 158.942593 
L 134.837865 158.942593 
L 136.93211 157.862414 
L 137.979233 157.862414 
L 137.979233 157.322325 
L 138.677314 157.322325 
L 138.677314 156.782235 
L 140.77156 156.782235 
L 144.611009 155.161967 
L 145.309091 155.161967 
L 146.007173 154.621878 
L 146.356214 151.921431 
L 154.733194 144.900268 
L 154.733194 143.820089 
L 155.431276 143.820089 
L 156.478399 143.28 
L 156.82744 143.28 
L 157.17648 142.739911 
L 158.223603 142.199821 
L 158.223603 141.659732 
L 158.572644 141.119642 
L 159.270726 141.119642 
L 159.270726 140.579553 
L 159.968807 140.579553 
L 159.968807 140.039463 
L 161.01593 140.039463 
L 161.01593 137.339016 
L 162.761134 136.798927 
L 162.761134 135.178659 
L 163.459216 135.178659 
L 163.459216 134.638569 
L 164.506339 134.638569 
L 164.506339 134.09848 
L 165.553461 134.09848 
L 165.553461 133.55839 
L 167.647706 133.55839 
L 168.345788 130.857943 
L 169.04387 130.857943 
L 169.04387 130.317854 
L 170.090992 130.317854 
L 170.090992 129.777765 
L 170.789074 128.697586 
L 171.836197 128.697586 
L 172.534279 128.157496 
L 173.581401 127.617407 
L 174.279483 127.617407 
L 176.024687 126.537228 
L 176.722769 126.537228 
L 177.420851 125.997139 
L 177.769892 125.997139 
L 183.703586 124.91696 
L 184.401668 124.91696 
L 184.401668 123.836781 
L 184.750709 123.296692 
L 186.844954 123.296692 
L 187.193995 122.756602 
L 188.241118 122.756602 
L 189.986322 120.596244 
L 190.684404 120.056155 
L 193.825771 117.355708 
L 194.872894 116.815618 
L 195.221935 116.275529 
L 197.31618 116.275529 
L 197.665221 115.19535 
L 198.014262 115.19535 
L 199.759466 114.115171 
L 202.551793 113.575082 
L 202.551793 113.034993 
L 205.693161 113.034993 
L 207.438365 111.414724 
L 208.485488 109.794456 
L 209.532611 109.794456 
L 209.881651 108.714277 
L 209.881651 108.174188 
L 210.230692 107.634098 
L 211.975897 106.01383 
L 212.324937 106.01383 
L 212.673978 105.473741 
L 214.419183 105.473741 
L 225.23945 97.372399 
L 225.937531 97.372399 
L 229.078899 96.83231 
L 241.295329 89.271058 
L 241.993411 89.271058 
L 243.738616 88.190879 
L 243.738616 87.65079 
L 251.068474 85.490432 
L 278.642702 77.92918 
L 282.133111 76.308912 
L 282.831193 76.308912 
L 288.066806 74.688644 
L 290.161051 69.28775 
L 290.510092 69.28775 
L 293.302419 68.74766 
L 296.792827 65.507124 
L 298.538032 65.507124 
L 302.726522 63.886855 
L 310.405421 61.726498 
L 316.688157 58.485961 
L 320.178565 58.485961 
L 321.92377 56.865693 
L 330.998832 54.165246 
L 344.262385 52.544978 
L 370.789491 44.983726 
L 373.581818 44.443636 
L 373.581818 44.443636 
" style="fill:none;stroke:#d62728;stroke-linecap:square;"/>
   </g>
   <g id="line2d_17">
    <path clip-path="url(#pd136a1b75c)" d="M 69.218182 242.116364 
L 69.218182 236.17538 
L 69.916264 236.17538 
L 69.916264 235.095201 
L 70.614345 235.095201 
L 70.614345 231.854665 
L 71.661468 231.854665 
L 71.661468 230.234396 
L 72.70859 230.234396 
L 72.70859 229.694307 
L 73.755713 229.694307 
L 73.755713 228.074039 
L 74.104754 228.074039 
L 74.104754 227.533949 
L 74.453795 227.533949 
L 74.453795 226.99386 
L 74.802836 226.99386 
L 74.802836 226.45377 
L 75.849958 226.45377 
L 75.849958 225.373592 
L 76.897081 225.373592 
L 77.246122 224.833502 
L 77.246122 224.293413 
L 77.944204 224.293413 
L 77.944204 223.753323 
L 78.642285 223.753323 
L 78.642285 222.673145 
L 80.038449 222.673145 
L 80.038449 222.133055 
L 80.38749 222.133055 
L 80.38749 221.592966 
L 80.73653 221.592966 
L 80.73653 220.512787 
L 83.179817 220.512787 
L 83.179817 219.972697 
L 83.528857 219.972697 
L 83.528857 218.892519 
L 83.877898 218.892519 
L 83.877898 218.352429 
L 84.57598 218.352429 
L 84.57598 217.81234 
L 85.972143 217.81234 
L 85.972143 217.27225 
L 86.670225 217.27225 
L 86.670225 216.732161 
L 87.368307 216.732161 
L 87.368307 216.192072 
L 88.41543 216.192072 
L 88.41543 215.651982 
L 89.113511 215.651982 
L 89.113511 215.111893 
L 90.858716 215.111893 
L 90.858716 214.571803 
L 91.556797 214.571803 
L 91.556797 214.031714 
L 92.254879 214.031714 
L 92.254879 213.491624 
L 92.60392 213.491624 
L 92.60392 212.411446 
L 93.651043 212.411446 
L 93.651043 211.871356 
L 94.349124 211.871356 
L 94.349124 210.251088 
L 94.698165 210.251088 
L 94.698165 208.09073 
L 95.047206 208.09073 
L 95.047206 206.470462 
L 96.094329 206.470462 
L 96.094329 205.930373 
L 96.79241 205.930373 
L 96.79241 205.390283 
L 97.141451 205.390283 
L 97.141451 204.850194 
L 97.839533 204.850194 
L 97.839533 204.310104 
L 98.886656 204.310104 
L 98.886656 203.229925 
L 99.235696 203.229925 
L 99.235696 202.689836 
L 99.584737 202.689836 
L 99.584737 201.609657 
L 100.63186 201.609657 
L 100.63186 201.069568 
L 100.980901 201.069568 
L 100.980901 200.529478 
L 101.329942 200.529478 
L 101.329942 199.4493 
L 101.678982 199.4493 
L 101.678982 198.90921 
L 102.028023 198.90921 
L 102.028023 198.369121 
L 102.726105 198.369121 
L 102.726105 197.829031 
L 104.471309 197.829031 
L 104.471309 197.288942 
L 105.518432 197.288942 
L 105.518432 195.668674 
L 107.612677 195.668674 
L 107.612677 194.588495 
L 107.961718 194.588495 
L 107.961718 193.508316 
L 108.310759 193.508316 
L 108.310759 192.968227 
L 109.008841 192.968227 
L 109.008841 192.428137 
L 110.055963 192.428137 
L 110.055963 191.888048 
L 110.405004 191.888048 
L 111.103086 191.347958 
L 112.84829 191.347958 
L 112.84829 190.267779 
L 113.197331 190.267779 
L 113.895413 189.72769 
L 115.640617 189.72769 
L 115.640617 189.187601 
L 115.989658 189.187601 
L 115.989658 188.107422 
L 117.036781 188.107422 
L 117.036781 187.027243 
L 117.734862 187.027243 
L 117.734862 185.947064 
L 118.432944 185.947064 
L 118.432944 184.866885 
L 118.781985 184.326796 
L 118.781985 183.246617 
L 120.527189 183.246617 
L 120.527189 181.626349 
L 121.574312 181.626349 
L 121.574312 181.086259 
L 121.923353 181.086259 
L 121.923353 180.54617 
L 123.668557 180.54617 
L 123.668557 180.00608 
L 125.064721 180.00608 
L 125.413761 179.465991 
L 125.413761 178.925902 
L 125.762802 178.925902 
L 125.762802 177.845723 
L 126.809925 177.845723 
L 126.809925 175.145276 
L 127.158966 175.145276 
L 127.158966 174.605186 
L 127.857048 174.605186 
L 127.857048 174.065097 
L 128.555129 174.065097 
L 128.555129 172.984918 
L 130.649374 172.984918 
L 130.649374 172.444829 
L 131.347456 172.444829 
L 131.347456 170.82456 
L 131.696497 170.82456 
L 131.696497 170.284471 
L 133.092661 170.284471 
L 133.092661 169.744382 
L 133.441701 169.744382 
L 133.441701 169.204292 
L 133.790742 168.664203 
L 135.535947 168.664203 
L 135.535947 168.124113 
L 136.93211 168.124113 
L 136.93211 167.584024 
L 137.281151 167.584024 
L 137.979233 165.963756 
L 139.026355 165.963756 
L 139.026355 165.423666 
L 140.422519 165.423666 
L 140.422519 164.883577 
L 141.469641 164.883577 
L 141.818682 164.343487 
L 143.214846 164.343487 
L 143.214846 163.803398 
L 143.563887 163.803398 
L 143.563887 162.723219 
L 146.007173 162.723219 
L 146.007173 162.18313 
L 148.101418 162.18313 
L 148.101418 161.64304 
L 148.7995 161.64304 
L 148.7995 161.102951 
L 149.497581 161.102951 
L 149.497581 160.562861 
L 149.846622 160.562861 
L 149.846622 159.482683 
L 151.940867 159.482683 
L 151.940867 158.942593 
L 153.337031 158.942593 
L 153.337031 158.402504 
L 153.686072 158.402504 
L 153.686072 157.862414 
L 155.780317 157.862414 
L 155.780317 156.782235 
L 157.17648 156.782235 
L 157.17648 155.702057 
L 157.525521 155.161967 
L 157.525521 154.621878 
L 158.572644 154.621878 
L 158.572644 154.081788 
L 159.619766 154.081788 
L 159.619766 153.00161 
L 159.968807 152.46152 
L 160.666889 152.46152 
L 160.666889 151.921431 
L 161.01593 151.921431 
L 161.01593 151.381341 
L 161.364971 150.841252 
L 162.063053 150.841252 
L 162.063053 149.761073 
L 163.808257 149.761073 
L 163.808257 149.220984 
L 165.20442 149.220984 
L 165.20442 147.600715 
L 167.298666 147.600715 
L 167.298666 147.060626 
L 167.996747 147.060626 
L 167.996747 146.520537 
L 169.04387 146.520537 
L 169.392911 144.900268 
L 170.090992 144.900268 
L 170.090992 144.360179 
L 170.440033 144.360179 
L 170.440033 143.820089 
L 170.789074 143.820089 
L 170.789074 141.119642 
L 171.138115 141.119642 
L 171.836197 140.579553 
L 172.883319 140.579553 
L 172.883319 139.499374 
L 173.23236 139.499374 
L 173.23236 138.959285 
L 173.581401 138.959285 
L 173.581401 137.879106 
L 173.930442 137.339016 
L 174.628524 137.339016 
L 174.628524 136.798927 
L 175.675646 136.798927 
L 175.675646 136.258838 
L 176.024687 136.258838 
L 177.07181 134.638569 
L 177.07181 134.09848 
L 177.420851 133.55839 
L 177.769892 133.55839 
L 177.769892 133.018301 
L 178.118932 132.478212 
L 181.958382 132.478212 
L 182.307423 131.938122 
L 182.307423 131.398033 
L 183.005505 131.398033 
L 183.005505 130.317854 
L 183.354545 130.317854 
L 183.354545 129.237675 
L 183.703586 129.237675 
L 183.703586 128.697586 
L 184.401668 128.697586 
L 184.401668 128.157496 
L 185.09975 128.157496 
L 185.09975 127.617407 
L 186.844954 127.617407 
L 186.844954 127.077317 
L 188.939199 127.077317 
L 188.939199 126.537228 
L 190.335363 126.537228 
L 190.335363 125.997139 
L 190.684404 125.997139 
L 190.684404 125.457049 
L 192.080567 125.457049 
L 192.778649 124.37687 
L 192.778649 123.836781 
L 193.476731 123.836781 
L 193.476731 122.756602 
L 194.872894 122.756602 
L 194.872894 122.216513 
L 195.221935 122.216513 
L 195.221935 121.136334 
L 195.570976 121.136334 
L 197.665221 120.596244 
L 198.014262 120.056155 
L 198.014262 119.516066 
L 199.061384 119.516066 
L 199.061384 118.975976 
L 199.759466 118.975976 
L 199.759466 117.355708 
L 200.108507 117.355708 
L 200.108507 116.815618 
L 200.457548 116.815618 
L 201.15563 116.275529 
L 202.551793 116.275529 
L 202.551793 115.19535 
L 204.995079 115.19535 
L 204.995079 114.655261 
L 205.34412 114.655261 
L 205.34412 113.575082 
L 207.438365 113.575082 
L 207.438365 113.034993 
L 210.928774 113.034993 
L 210.928774 112.494903 
L 211.626856 112.494903 
L 212.324937 111.954814 
L 213.721101 111.414724 
L 213.721101 110.874635 
L 214.070142 110.874635 
L 214.070142 110.334545 
L 214.768224 110.334545 
L 214.768224 109.794456 
L 216.164387 109.794456 
L 216.164387 109.254367 
L 217.909591 109.254367 
L 217.909591 108.714277 
L 220.003837 108.714277 
L 220.352877 107.634098 
L 221.050959 107.634098 
L 221.050959 107.094009 
L 221.749041 107.094009 
L 221.749041 105.473741 
L 224.541368 105.473741 
L 224.890409 104.933651 
L 225.23945 104.933651 
L 225.23945 104.393562 
L 228.031776 104.393562 
L 228.031776 103.853472 
L 229.078899 103.853472 
L 229.078899 102.233204 
L 230.126022 102.233204 
L 230.126022 101.153025 
L 231.522185 101.153025 
L 231.522185 100.612936 
L 235.012594 100.612936 
L 235.012594 100.072846 
L 235.361635 100.072846 
L 235.361635 99.532757 
L 237.45588 99.532757 
L 237.45588 98.992668 
L 238.153962 98.992668 
L 238.153962 98.452578 
L 240.248207 98.452578 
L 240.248207 97.912489 
L 240.597248 97.912489 
L 240.597248 97.372399 
L 240.946289 97.372399 
L 240.946289 96.83231 
L 241.295329 96.83231 
L 241.295329 96.292221 
L 243.040534 96.292221 
L 243.389575 95.212042 
L 243.389575 94.671952 
L 244.087656 94.671952 
L 244.087656 94.131863 
L 244.436697 94.131863 
L 244.436697 93.051684 
L 246.181902 93.051684 
L 246.181902 91.971505 
L 248.276147 91.971505 
L 248.276147 90.351237 
L 250.021351 90.351237 
L 250.021351 89.811148 
L 250.719433 89.271058 
L 252.464637 89.271058 
L 252.464637 88.730969 
L 253.162719 88.190879 
L 253.51176 87.65079 
L 253.51176 87.1107 
L 255.955046 87.1107 
L 256.653128 86.570611 
L 258.398332 86.570611 
L 258.398332 86.030522 
L 260.143536 86.030522 
L 260.143536 85.490432 
L 262.237781 85.490432 
L 262.237781 84.950343 
L 262.935863 84.950343 
L 262.935863 84.410253 
L 264.332027 84.410253 
L 265.030108 83.870164 
L 265.379149 83.870164 
L 265.379149 81.709806 
L 266.775313 81.709806 
L 266.775313 81.169717 
L 267.124354 80.629627 
L 267.124354 79.549449 
L 268.520517 79.549449 
L 269.218599 79.009359 
L 271.312844 79.009359 
L 271.312844 78.46927 
L 273.058048 78.46927 
L 273.058048 77.92918 
L 274.105171 77.92918 
L 274.105171 76.849001 
L 274.454212 76.849001 
L 274.803253 76.308912 
L 275.152294 76.308912 
L 275.152294 74.688644 
L 276.897498 74.688644 
L 276.897498 74.148554 
L 277.944621 74.148554 
L 277.944621 73.608465 
L 278.293661 73.608465 
L 278.293661 72.528286 
L 282.482152 72.528286 
L 283.180234 71.988197 
L 283.529274 71.988197 
L 283.529274 71.448107 
L 284.227356 71.448107 
L 284.227356 70.908018 
L 286.321601 70.908018 
L 287.019683 69.827839 
L 287.019683 69.28775 
L 290.510092 69.28775 
L 290.510092 68.74766 
L 292.953378 68.74766 
L 292.953378 68.207571 
L 293.302419 68.207571 
L 294.0005 67.667481 
L 296.094746 67.667481 
L 296.094746 67.127392 
L 296.443786 67.127392 
L 296.443786 66.047213 
L 296.792827 65.507124 
L 297.141868 65.507124 
L 297.141868 64.967034 
L 299.236113 64.967034 
L 299.236113 64.426945 
L 299.585154 64.426945 
L 299.585154 63.886855 
L 300.283236 63.886855 
L 300.283236 62.806677 
L 300.632277 62.806677 
L 301.330359 62.266587 
L 303.424604 62.266587 
L 303.424604 61.726498 
L 303.773645 61.726498 
L 303.773645 61.186408 
L 306.565972 61.186408 
L 307.264053 60.646319 
L 310.405421 60.646319 
L 310.405421 60.10623 
L 310.754462 60.10623 
L 310.754462 59.026051 
L 314.244871 59.026051 
L 315.641034 58.485961 
L 317.735279 58.485961 
L 317.735279 57.945872 
L 318.782402 57.945872 
L 318.782402 57.405782 
L 319.829525 57.405782 
L 319.829525 56.865693 
L 320.178565 56.865693 
L 320.178565 56.325604 
L 322.621852 56.325604 
L 322.621852 55.245425 
L 322.970892 55.245425 
L 322.970892 54.705335 
L 325.065138 54.705335 
L 325.065138 54.165246 
L 325.763219 54.165246 
L 325.763219 53.625156 
L 326.11226 53.625156 
L 326.11226 53.085067 
L 327.159383 53.085067 
L 327.159383 52.544978 
L 328.904587 52.544978 
L 328.904587 52.004888 
L 337.630609 52.004888 
L 337.630609 51.464799 
L 338.328691 51.464799 
L 338.328691 50.924709 
L 342.16814 50.924709 
L 342.16814 49.844531 
L 343.913344 49.844531 
L 343.913344 49.304441 
L 344.611426 49.304441 
L 344.611426 48.764352 
L 346.356631 48.764352 
L 346.356631 48.224262 
L 348.450876 48.224262 
L 348.450876 47.684173 
L 353.686489 47.684173 
L 353.686489 47.144083 
L 356.129775 47.144083 
L 356.129775 46.603994 
L 358.922102 46.603994 
L 358.922102 46.063905 
L 369.742369 46.063905 
L 370.09141 45.523815 
L 371.836614 45.523815 
L 371.836614 44.983726 
L 373.232777 44.983726 
L 373.232777 44.443636 
L 373.581818 44.443636 
L 373.581818 44.443636 
" style="fill:none;stroke:#9467bd;stroke-linecap:square;"/>
   </g>
   <g id="line2d_18">
    <path clip-path="url(#pd136a1b75c)" d="M 69.218182 242.116364 
L 373.581818 44.443636 
" style="fill:none;stroke:#ee82ee;stroke-dasharray:5.55,2.4;stroke-dashoffset:0;stroke-width:1.5;"/>
   </g>
   <g id="patch_3">
    <path d="M 54 252 
L 54 34.56 
" style="fill:none;stroke:#000000;stroke-linecap:square;stroke-linejoin:miter;stroke-width:0.8;"/>
   </g>
   <g id="patch_4">
    <path d="M 54 252 
L 388.8 252 
" style="fill:none;stroke:#000000;stroke-linecap:square;stroke-linejoin:miter;stroke-width:0.8;"/>
   </g>
   <g id="text_15">
    <!-- Model Comparison - ROC curve -->
    <g transform="translate(127.774688 28.56)scale(0.12 -0.12)">
     <defs>
      <path d="M 9.8125 72.90625 
L 24.515625 72.90625 
L 43.109375 23.296875 
L 61.8125 72.90625 
L 76.515625 72.90625 
L 76.515625 0 
L 66.890625 0 
L 66.890625 64.015625 
L 48.09375 14.015625 
L 38.1875 14.015625 
L 19.390625 64.015625 
L 19.390625 0 
L 9.8125 0 
z
" id="DejaVuSans-77"/>
      <path d="M 45.40625 46.390625 
L 45.40625 75.984375 
L 54.390625 75.984375 
L 54.390625 0 
L 45.40625 0 
L 45.40625 8.203125 
Q 42.578125 3.328125 38.25 0.953125 
Q 33.9375 -1.421875 27.875 -1.421875 
Q 17.96875 -1.421875 11.734375 6.484375 
Q 5.515625 14.40625 5.515625 27.296875 
Q 5.515625 40.1875 11.734375 48.09375 
Q 17.96875 56 27.875 56 
Q 33.9375 56 38.25 53.625 
Q 42.578125 51.265625 45.40625 46.390625 
z
M 14.796875 27.296875 
Q 14.796875 17.390625 18.875 11.75 
Q 22.953125 6.109375 30.078125 6.109375 
Q 37.203125 6.109375 41.296875 11.75 
Q 45.40625 17.390625 45.40625 27.296875 
Q 45.40625 37.203125 41.296875 42.84375 
Q 37.203125 48.484375 30.078125 48.484375 
Q 22.953125 48.484375 18.875 42.84375 
Q 14.796875 37.203125 14.796875 27.296875 
z
" id="DejaVuSans-100"/>
      <path d="M 64.40625 67.28125 
L 64.40625 56.890625 
Q 59.421875 61.53125 53.78125 63.8125 
Q 48.140625 66.109375 41.796875 66.109375 
Q 29.296875 66.109375 22.65625 58.46875 
Q 16.015625 50.828125 16.015625 36.375 
Q 16.015625 21.96875 22.65625 14.328125 
Q 29.296875 6.6875 41.796875 6.6875 
Q 48.140625 6.6875 53.78125 8.984375 
Q 59.421875 11.28125 64.40625 15.921875 
L 64.40625 5.609375 
Q 59.234375 2.09375 53.4375 0.328125 
Q 47.65625 -1.421875 41.21875 -1.421875 
Q 24.65625 -1.421875 15.125 8.703125 
Q 5.609375 18.84375 5.609375 36.375 
Q 5.609375 53.953125 15.125 64.078125 
Q 24.65625 74.21875 41.21875 74.21875 
Q 47.75 74.21875 53.53125 72.484375 
Q 59.328125 70.75 64.40625 67.28125 
z
" id="DejaVuSans-67"/>
      <path d="M 52 44.1875 
Q 55.375 50.25 60.0625 53.125 
Q 64.75 56 71.09375 56 
Q 79.640625 56 84.28125 50.015625 
Q 88.921875 44.046875 88.921875 33.015625 
L 88.921875 0 
L 79.890625 0 
L 79.890625 32.71875 
Q 79.890625 40.578125 77.09375 44.375 
Q 74.3125 48.1875 68.609375 48.1875 
Q 61.625 48.1875 57.5625 43.546875 
Q 53.515625 38.921875 53.515625 30.90625 
L 53.515625 0 
L 44.484375 0 
L 44.484375 32.71875 
Q 44.484375 40.625 41.703125 44.40625 
Q 38.921875 48.1875 33.109375 48.1875 
Q 26.21875 48.1875 22.15625 43.53125 
Q 18.109375 38.875 18.109375 30.90625 
L 18.109375 0 
L 9.078125 0 
L 9.078125 54.6875 
L 18.109375 54.6875 
L 18.109375 46.1875 
Q 21.1875 51.21875 25.484375 53.609375 
Q 29.78125 56 35.6875 56 
Q 41.65625 56 45.828125 52.96875 
Q 50 49.953125 52 44.1875 
z
" id="DejaVuSans-109"/>
      <path d="M 54.890625 33.015625 
L 54.890625 0 
L 45.90625 0 
L 45.90625 32.71875 
Q 45.90625 40.484375 42.875 44.328125 
Q 39.84375 48.1875 33.796875 48.1875 
Q 26.515625 48.1875 22.3125 43.546875 
Q 18.109375 38.921875 18.109375 30.90625 
L 18.109375 0 
L 9.078125 0 
L 9.078125 54.6875 
L 18.109375 54.6875 
L 18.109375 46.1875 
Q 21.34375 51.125 25.703125 53.5625 
Q 30.078125 56 35.796875 56 
Q 45.21875 56 50.046875 50.171875 
Q 54.890625 44.34375 54.890625 33.015625 
z
" id="DejaVuSans-110"/>
      <path d="M 4.890625 31.390625 
L 31.203125 31.390625 
L 31.203125 23.390625 
L 4.890625 23.390625 
z
" id="DejaVuSans-45"/>
      <path d="M 44.390625 34.1875 
Q 47.5625 33.109375 50.5625 29.59375 
Q 53.5625 26.078125 56.59375 19.921875 
L 66.609375 0 
L 56 0 
L 46.6875 18.703125 
Q 43.0625 26.03125 39.671875 28.421875 
Q 36.28125 30.8125 30.421875 30.8125 
L 19.671875 30.8125 
L 19.671875 0 
L 9.8125 0 
L 9.8125 72.90625 
L 32.078125 72.90625 
Q 44.578125 72.90625 50.734375 67.671875 
Q 56.890625 62.453125 56.890625 51.90625 
Q 56.890625 45.015625 53.6875 40.46875 
Q 50.484375 35.9375 44.390625 34.1875 
z
M 19.671875 64.796875 
L 19.671875 38.921875 
L 32.078125 38.921875 
Q 39.203125 38.921875 42.84375 42.21875 
Q 46.484375 45.515625 46.484375 51.90625 
Q 46.484375 58.296875 42.84375 61.546875 
Q 39.203125 64.796875 32.078125 64.796875 
z
" id="DejaVuSans-82"/>
      <path d="M 39.40625 66.21875 
Q 28.65625 66.21875 22.328125 58.203125 
Q 16.015625 50.203125 16.015625 36.375 
Q 16.015625 22.609375 22.328125 14.59375 
Q 28.65625 6.59375 39.40625 6.59375 
Q 50.140625 6.59375 56.421875 14.59375 
Q 62.703125 22.609375 62.703125 36.375 
Q 62.703125 50.203125 56.421875 58.203125 
Q 50.140625 66.21875 39.40625 66.21875 
z
M 39.40625 74.21875 
Q 54.734375 74.21875 63.90625 63.9375 
Q 73.09375 53.65625 73.09375 36.375 
Q 73.09375 19.140625 63.90625 8.859375 
Q 54.734375 -1.421875 39.40625 -1.421875 
Q 24.03125 -1.421875 14.8125 8.828125 
Q 5.609375 19.09375 5.609375 36.375 
Q 5.609375 53.65625 14.8125 63.9375 
Q 24.03125 74.21875 39.40625 74.21875 
z
" id="DejaVuSans-79"/>
      <path d="M 48.78125 52.59375 
L 48.78125 44.1875 
Q 44.96875 46.296875 41.140625 47.34375 
Q 37.3125 48.390625 33.40625 48.390625 
Q 24.65625 48.390625 19.8125 42.84375 
Q 14.984375 37.3125 14.984375 27.296875 
Q 14.984375 17.28125 19.8125 11.734375 
Q 24.65625 6.203125 33.40625 6.203125 
Q 37.3125 6.203125 41.140625 7.25 
Q 44.96875 8.296875 48.78125 10.40625 
L 48.78125 2.09375 
Q 45.015625 0.34375 40.984375 -0.53125 
Q 36.96875 -1.421875 32.421875 -1.421875 
Q 20.0625 -1.421875 12.78125 6.34375 
Q 5.515625 14.109375 5.515625 27.296875 
Q 5.515625 40.671875 12.859375 48.328125 
Q 20.21875 56 33.015625 56 
Q 37.15625 56 41.109375 55.140625 
Q 45.0625 54.296875 48.78125 52.59375 
z
" id="DejaVuSans-99"/>
     </defs>
     <use xlink:href="#DejaVuSans-77"/>
     <use x="86.279297" xlink:href="#DejaVuSans-111"/>
     <use x="147.460938" xlink:href="#DejaVuSans-100"/>
     <use x="210.9375" xlink:href="#DejaVuSans-101"/>
     <use x="272.460938" xlink:href="#DejaVuSans-108"/>
     <use x="300.244141" xlink:href="#DejaVuSans-32"/>
     <use x="332.03125" xlink:href="#DejaVuSans-67"/>
     <use x="401.855469" xlink:href="#DejaVuSans-111"/>
     <use x="463.037109" xlink:href="#DejaVuSans-109"/>
     <use x="560.449219" xlink:href="#DejaVuSans-112"/>
     <use x="623.925781" xlink:href="#DejaVuSans-97"/>
     <use x="685.205078" xlink:href="#DejaVuSans-114"/>
     <use x="726.318359" xlink:href="#DejaVuSans-105"/>
     <use x="754.101562" xlink:href="#DejaVuSans-115"/>
     <use x="806.201172" xlink:href="#DejaVuSans-111"/>
     <use x="867.382812" xlink:href="#DejaVuSans-110"/>
     <use x="930.761719" xlink:href="#DejaVuSans-32"/>
     <use x="962.548828" xlink:href="#DejaVuSans-45"/>
     <use x="998.632812" xlink:href="#DejaVuSans-32"/>
     <use x="1030.419922" xlink:href="#DejaVuSans-82"/>
     <use x="1099.902344" xlink:href="#DejaVuSans-79"/>
     <use x="1178.613281" xlink:href="#DejaVuSans-67"/>
     <use x="1248.4375" xlink:href="#DejaVuSans-32"/>
     <use x="1280.224609" xlink:href="#DejaVuSans-99"/>
     <use x="1335.205078" xlink:href="#DejaVuSans-117"/>
     <use x="1398.583984" xlink:href="#DejaVuSans-114"/>
     <use x="1439.697266" xlink:href="#DejaVuSans-118"/>
     <use x="1498.876953" xlink:href="#DejaVuSans-101"/>
    </g>
   </g>
   <g id="legend_1">
    <g id="patch_5">
     <path d="M 59.831 77.904634 
L 257.682817 77.904634 
Q 259.348817 77.904634 259.348817 76.238634 
L 259.348817 40.391 
Q 259.348817 38.725 257.682817 38.725 
L 59.831 38.725 
Q 58.165 38.725 58.165 40.391 
L 58.165 76.238634 
Q 58.165 77.904634 59.831 77.904634 
z
" style="fill:#ffffff;opacity:0.8;stroke:#cccccc;stroke-linejoin:miter;"/>
    </g>
    <g id="line2d_19">
     <path d="M 61.497 45.470998 
L 78.157 45.470998 
" style="fill:none;stroke:#1f77b4;stroke-linecap:square;"/>
    </g>
    <g id="line2d_20"/>
    <g id="text_16">
     <!-- Logistic Regression -->
     <g transform="translate(84.821 48.386498)scale(0.0833 -0.0833)">
      <defs>
       <path d="M 9.8125 72.90625 
L 19.671875 72.90625 
L 19.671875 8.296875 
L 55.171875 8.296875 
L 55.171875 0 
L 9.8125 0 
z
" id="DejaVuSans-76"/>
       <path d="M 45.40625 27.984375 
Q 45.40625 37.75 41.375 43.109375 
Q 37.359375 48.484375 30.078125 48.484375 
Q 22.859375 48.484375 18.828125 43.109375 
Q 14.796875 37.75 14.796875 27.984375 
Q 14.796875 18.265625 18.828125 12.890625 
Q 22.859375 7.515625 30.078125 7.515625 
Q 37.359375 7.515625 41.375 12.890625 
Q 45.40625 18.265625 45.40625 27.984375 
z
M 54.390625 6.78125 
Q 54.390625 -7.171875 48.1875 -13.984375 
Q 42 -20.796875 29.203125 -20.796875 
Q 24.46875 -20.796875 20.265625 -20.09375 
Q 16.0625 -19.390625 12.109375 -17.921875 
L 12.109375 -9.1875 
Q 16.0625 -11.328125 19.921875 -12.34375 
Q 23.78125 -13.375 27.78125 -13.375 
Q 36.625 -13.375 41.015625 -8.765625 
Q 45.40625 -4.15625 45.40625 5.171875 
L 45.40625 9.625 
Q 42.625 4.78125 38.28125 2.390625 
Q 33.9375 0 27.875 0 
Q 17.828125 0 11.671875 7.65625 
Q 5.515625 15.328125 5.515625 27.984375 
Q 5.515625 40.671875 11.671875 48.328125 
Q 17.828125 56 27.875 56 
Q 33.9375 56 38.28125 53.609375 
Q 42.625 51.21875 45.40625 46.390625 
L 45.40625 54.6875 
L 54.390625 54.6875 
z
" id="DejaVuSans-103"/>
      </defs>
      <use xlink:href="#DejaVuSans-76"/>
      <use x="53.962891" xlink:href="#DejaVuSans-111"/>
      <use x="115.144531" xlink:href="#DejaVuSans-103"/>
      <use x="178.621094" xlink:href="#DejaVuSans-105"/>
      <use x="206.404297" xlink:href="#DejaVuSans-115"/>
      <use x="258.503906" xlink:href="#DejaVuSans-116"/>
      <use x="297.712891" xlink:href="#DejaVuSans-105"/>
      <use x="325.496094" xlink:href="#DejaVuSans-99"/>
      <use x="380.476562" xlink:href="#DejaVuSans-32"/>
      <use x="412.263672" xlink:href="#DejaVuSans-82"/>
      <use x="477.246094" xlink:href="#DejaVuSans-101"/>
      <use x="538.769531" xlink:href="#DejaVuSans-103"/>
      <use x="602.246094" xlink:href="#DejaVuSans-114"/>
      <use x="641.109375" xlink:href="#DejaVuSans-101"/>
      <use x="702.632812" xlink:href="#DejaVuSans-115"/>
      <use x="754.732422" xlink:href="#DejaVuSans-115"/>
      <use x="806.832031" xlink:href="#DejaVuSans-105"/>
      <use x="834.615234" xlink:href="#DejaVuSans-111"/>
      <use x="895.796875" xlink:href="#DejaVuSans-110"/>
     </g>
    </g>
    <g id="line2d_21">
     <path d="M 61.497 57.697877 
L 78.157 57.697877 
" style="fill:none;stroke:#ff7f0e;stroke-linecap:square;"/>
    </g>
    <g id="line2d_22"/>
    <g id="text_17">
     <!-- Decision Tree -->
     <g transform="translate(84.821 60.613377)scale(0.0833 -0.0833)">
      <defs>
       <path d="M 19.671875 64.796875 
L 19.671875 8.109375 
L 31.59375 8.109375 
Q 46.6875 8.109375 53.6875 14.9375 
Q 60.6875 21.78125 60.6875 36.53125 
Q 60.6875 51.171875 53.6875 57.984375 
Q 46.6875 64.796875 31.59375 64.796875 
z
M 9.8125 72.90625 
L 30.078125 72.90625 
Q 51.265625 72.90625 61.171875 64.09375 
Q 71.09375 55.28125 71.09375 36.53125 
Q 71.09375 17.671875 61.125 8.828125 
Q 51.171875 0 30.078125 0 
L 9.8125 0 
z
" id="DejaVuSans-68"/>
      </defs>
      <use xlink:href="#DejaVuSans-68"/>
      <use x="77.001953" xlink:href="#DejaVuSans-101"/>
      <use x="138.525391" xlink:href="#DejaVuSans-99"/>
      <use x="193.505859" xlink:href="#DejaVuSans-105"/>
      <use x="221.289062" xlink:href="#DejaVuSans-115"/>
      <use x="273.388672" xlink:href="#DejaVuSans-105"/>
      <use x="301.171875" xlink:href="#DejaVuSans-111"/>
      <use x="362.353516" xlink:href="#DejaVuSans-110"/>
      <use x="425.732422" xlink:href="#DejaVuSans-32"/>
      <use x="457.519531" xlink:href="#DejaVuSans-84"/>
      <use x="503.853516" xlink:href="#DejaVuSans-114"/>
      <use x="542.716797" xlink:href="#DejaVuSans-101"/>
      <use x="604.240234" xlink:href="#DejaVuSans-101"/>
     </g>
    </g>
    <g id="line2d_23">
     <path d="M 61.497 69.924755 
L 78.157 69.924755 
" style="fill:none;stroke:#2ca02c;stroke-linecap:square;"/>
    </g>
    <g id="line2d_24"/>
    <g id="text_18">
     <!-- KNN -->
     <g transform="translate(84.821 72.840255)scale(0.0833 -0.0833)">
      <defs>
       <path d="M 9.8125 72.90625 
L 19.671875 72.90625 
L 19.671875 42.09375 
L 52.390625 72.90625 
L 65.09375 72.90625 
L 28.90625 38.921875 
L 67.671875 0 
L 54.6875 0 
L 19.671875 35.109375 
L 19.671875 0 
L 9.8125 0 
z
" id="DejaVuSans-75"/>
       <path d="M 9.8125 72.90625 
L 23.09375 72.90625 
L 55.421875 11.921875 
L 55.421875 72.90625 
L 64.984375 72.90625 
L 64.984375 0 
L 51.703125 0 
L 19.390625 60.984375 
L 19.390625 0 
L 9.8125 0 
z
" id="DejaVuSans-78"/>
      </defs>
      <use xlink:href="#DejaVuSans-75"/>
      <use x="65.576172" xlink:href="#DejaVuSans-78"/>
      <use x="140.380859" xlink:href="#DejaVuSans-78"/>
     </g>
    </g>
    <g id="line2d_25">
     <path d="M 181.381319 45.470998 
L 198.041319 45.470998 
" style="fill:none;stroke:#d62728;stroke-linecap:square;"/>
    </g>
    <g id="line2d_26"/>
    <g id="text_19">
     <!-- Bernoulli NB -->
     <g transform="translate(204.705319 48.386498)scale(0.0833 -0.0833)">
      <defs>
       <path d="M 19.671875 34.8125 
L 19.671875 8.109375 
L 35.5 8.109375 
Q 43.453125 8.109375 47.28125 11.40625 
Q 51.125 14.703125 51.125 21.484375 
Q 51.125 28.328125 47.28125 31.5625 
Q 43.453125 34.8125 35.5 34.8125 
z
M 19.671875 64.796875 
L 19.671875 42.828125 
L 34.28125 42.828125 
Q 41.5 42.828125 45.03125 45.53125 
Q 48.578125 48.25 48.578125 53.8125 
Q 48.578125 59.328125 45.03125 62.0625 
Q 41.5 64.796875 34.28125 64.796875 
z
M 9.8125 72.90625 
L 35.015625 72.90625 
Q 46.296875 72.90625 52.390625 68.21875 
Q 58.5 63.53125 58.5 54.890625 
Q 58.5 48.1875 55.375 44.234375 
Q 52.25 40.28125 46.1875 39.3125 
Q 53.46875 37.75 57.5 32.78125 
Q 61.53125 27.828125 61.53125 20.40625 
Q 61.53125 10.640625 54.890625 5.3125 
Q 48.25 0 35.984375 0 
L 9.8125 0 
z
" id="DejaVuSans-66"/>
      </defs>
      <use xlink:href="#DejaVuSans-66"/>
      <use x="68.603516" xlink:href="#DejaVuSans-101"/>
      <use x="130.126953" xlink:href="#DejaVuSans-114"/>
      <use x="169.490234" xlink:href="#DejaVuSans-110"/>
      <use x="232.869141" xlink:href="#DejaVuSans-111"/>
      <use x="294.050781" xlink:href="#DejaVuSans-117"/>
      <use x="357.429688" xlink:href="#DejaVuSans-108"/>
      <use x="385.212891" xlink:href="#DejaVuSans-108"/>
      <use x="412.996094" xlink:href="#DejaVuSans-105"/>
      <use x="440.779297" xlink:href="#DejaVuSans-32"/>
      <use x="472.566406" xlink:href="#DejaVuSans-78"/>
      <use x="547.371094" xlink:href="#DejaVuSans-66"/>
     </g>
    </g>
    <g id="line2d_27">
     <path d="M 181.381319 57.697877 
L 198.041319 57.697877 
" style="fill:none;stroke:#9467bd;stroke-linecap:square;"/>
    </g>
    <g id="line2d_28"/>
    <g id="text_20">
     <!-- XGBoost -->
     <g transform="translate(204.705319 60.613377)scale(0.0833 -0.0833)">
      <defs>
       <path d="M 6.296875 72.90625 
L 16.890625 72.90625 
L 35.015625 45.796875 
L 53.21875 72.90625 
L 63.8125 72.90625 
L 40.375 37.890625 
L 65.375 0 
L 54.78125 0 
L 34.28125 31 
L 13.625 0 
L 2.984375 0 
L 29 38.921875 
z
" id="DejaVuSans-88"/>
       <path d="M 59.515625 10.40625 
L 59.515625 29.984375 
L 43.40625 29.984375 
L 43.40625 38.09375 
L 69.28125 38.09375 
L 69.28125 6.78125 
Q 63.578125 2.734375 56.6875 0.65625 
Q 49.8125 -1.421875 42 -1.421875 
Q 24.90625 -1.421875 15.25 8.5625 
Q 5.609375 18.5625 5.609375 36.375 
Q 5.609375 54.25 15.25 64.234375 
Q 24.90625 74.21875 42 74.21875 
Q 49.125 74.21875 55.546875 72.453125 
Q 61.96875 70.703125 67.390625 67.28125 
L 67.390625 56.78125 
Q 61.921875 61.421875 55.765625 63.765625 
Q 49.609375 66.109375 42.828125 66.109375 
Q 29.4375 66.109375 22.71875 58.640625 
Q 16.015625 51.171875 16.015625 36.375 
Q 16.015625 21.625 22.71875 14.15625 
Q 29.4375 6.6875 42.828125 6.6875 
Q 48.046875 6.6875 52.140625 7.59375 
Q 56.25 8.5 59.515625 10.40625 
z
" id="DejaVuSans-71"/>
      </defs>
      <use xlink:href="#DejaVuSans-88"/>
      <use x="68.505859" xlink:href="#DejaVuSans-71"/>
      <use x="145.996094" xlink:href="#DejaVuSans-66"/>
      <use x="214.599609" xlink:href="#DejaVuSans-111"/>
      <use x="275.78125" xlink:href="#DejaVuSans-111"/>
      <use x="336.962891" xlink:href="#DejaVuSans-115"/>
      <use x="389.0625" xlink:href="#DejaVuSans-116"/>
     </g>
    </g>
   </g>
  </g>
 </g>
 <defs>
  <clipPath id="pd136a1b75c">
   <rect height="217.44" width="334.8" x="54" y="34.56"/>
  </clipPath>
 </defs>
</svg>
